PathFileType	4	(X/Y/Z)	C:/Users/opensim2020/Desktop/walking_exp_matlab/subject01_walking06_straight_01.trc	
DataRate	CameraRate	NumFrames	NumMarkers	Units	OrigDataRate	OrigDataStartFrame	OrigNumFrames	
100.00	100.00	4	43	mm	100.00	891	251	
Frame#	Time	LFHD			RFHD			LBHD			RBHD			C7			T10			CLAV			STRN			RBAK			LSHO			LUPA			LELB			LFRM			LWRA			LWRB			LFIN			RSHO			RUPA			RELB			RFRM			RWRA			RWRB			RFIN			LASI			RASI			LPSI			RPSI			LTHI			LKNE			LTIB			LANK			LHEE			LTOE			RTHI			RKNE			RTIB			RANK			RHEE			RTOE			*39			*40			*41			*42			
		X1	Y1	Z1	X2	Y2	Z2	X3	Y3	Z3	X4	Y4	Z4	X5	Y5	Z5	X6	Y6	Z6	X7	Y7	Z7	X8	Y8	Z8	X9	Y9	Z9	X10	Y10	Z10	X11	Y11	Z11	X12	Y12	Z12	X13	Y13	Z13	X14	Y14	Z14	X15	Y15	Z15	X16	Y16	Z16	X17	Y17	Z17	X18	Y18	Z18	X19	Y19	Z19	X20	Y20	Z20	X21	Y21	Z21	X22	Y22	Z22	X23	Y23	Z23	X24	Y24	Z24	X25	Y25	Z25	X26	Y26	Z26	X27	Y27	Z27	X28	Y28	Z28	X29	Y29	Z29	X30	Y30	Z30	X31	Y31	Z31	X32	Y32	Z32	X33	Y33	Z33	X34	Y34	Z34	X35	Y35	Z35	X36	Y36	Z36	X37	Y37	Z37	X38	Y38	Z38	X39	Y39	Z39	X40	Y40	Z40	X41	Y41	Z41	X42	Y42	Z42	X43	Y43	Z43	

126	1.250	1393.45654	-309.15576	1673.28564	1504.86194	-284.94266	1682.60413	1413.45569	-409.85431	1601.15283	1531.72278	-386.76703	1609.35327	1445.36926	-418.28510	1429.90088	1450.24084	-456.91251	1137.66406	1443.89734	-275.58658	1360.15112	1435.53833	-235.78581	1203.34204	1517.17798	-474.71640	1234.94214	1285.11975	-335.00687	1393.95435	1194.29810	-337.43585	1212.42126	1186.29285	-316.44565	1060.82678	1169.30286	-234.38843	976.58215	1198.44617	-118.55808	905.45465	1171.19287	-163.01828	877.41370	1168.60669	-89.93534	834.73260	1596.07495	-338.35110	1386.74036	1688.97827	-414.11053	1189.75989	1687.85229	-424.82355	1065.94958	1716.87122	-410.78687	945.84772	1701.29688	-340.99097	822.91266	1736.49536	-387.89212	826.64954	1735.88965	-356.96008	746.64624	1337.43140	-291.24777	925.69458	1554.03296	-278.61145	936.94019	1403.48767	-474.50992	941.04901	1549.11731	-463.05185	943.24811	1300.33472	-355.77878	594.86841	1317.04346	-384.59375	461.24231	1317.17566	-460.44574	286.92709	1374.17981	-516.97217	77.10022	1428.60645	-564.02972	53.85862	1360.88525	-374.46100	31.49840	1623.52100	-235.15735	617.82037	1600.37952	-183.04570	469.23190	1604.64905	-226.20493	298.03796	1556.82324	-228.57401	89.96731	1500.98779	-266.99786	47.80032	1574.03528	-91.65260	59.66894	1484.61658	-307.82050	1712.03906	-3101.83667	1973.02734	1023.39087	-3140.56836	2012.54883	1022.03125			 
127	1.260	1394.50452	-300.30911	1672.83484	1505.91541	-276.14890	1682.08643	1414.37097	-400.91934	1600.43750	1532.64233	-377.79715	1608.56226	1446.07104	-409.02347	1429.32471	1451.12061	-447.91983	1137.23914	1444.55261	-266.33533	1359.62561	1435.88586	-226.60631	1202.80896	1517.77795	-465.59540	1234.36560	1285.83362	-325.73981	1393.64954	1194.82971	-327.42047	1212.31165	1186.48352	-305.36530	1060.81812	1169.76135	-222.60605	977.53168	1198.66309	-105.38202	908.15839	1171.59448	-149.47185	879.45062	1168.94739	-75.63359	837.64874	1596.75769	-329.22955	1386.06885	1689.24744	-405.52063	1189.15027	1687.99121	-416.45468	1065.38782	1717.01233	-403.22650	945.25195	1701.83606	-334.16150	821.89301	1736.82043	-381.11853	825.86432	1736.40002	-350.69037	745.92883	1337.23206	-283.00293	925.24628	1553.97839	-268.66492	936.31525	1404.47913	-465.41547	940.63141	1549.86487	-453.28049	942.75897	1300.41284	-350.11920	594.93079	1317.14709	-380.53366	461.49786	1317.46472	-458.13461	287.94244	1374.51270	-516.38379	78.72939	1428.99097	-563.84595	55.89500	1360.86182	-374.45746	31.48599	1623.37207	-230.04398	615.44647	1599.59314	-175.90283	468.17557	1605.26208	-210.20923	295.31641	1558.82690	-199.90962	86.54530	1503.54553	-236.24966	41.88432	1575.25012	-60.95443	64.58149	1485.67664	-299.08627	1711.48547	-3101.89209	1973.17627	1023.31757	-3140.52417	2012.64026	1022.11713			 
128	1.270	1395.61145	-291.55939	1672.36609	1507.00000	-267.37335	1681.49475	1415.40210	-391.90530	1599.61951	1533.68689	-368.85168	1607.68738	1446.84204	-399.77380	1428.67114	1452.22510	-438.82657	1136.73035	1445.32422	-257.07022	1359.09167	1436.34973	-217.39262	1202.19836	1518.55750	-456.38275	1233.67432	1286.66870	-316.56876	1393.23499	1195.47034	-317.41663	1212.09705	1186.80225	-294.50858	1060.74548	1169.96521	-210.34042	978.47455	1198.99023	-92.57973	910.66370	1172.01611	-136.34317	881.31989	1169.05762	-61.97483	840.66626	1597.55176	-320.01953	1385.38501	1689.62756	-396.87204	1188.50037	1688.28210	-408.01099	1064.84583	1717.37512	-395.49982	944.67157	1702.42078	-327.14420	820.83783	1737.30273	-374.16089	825.25244	1736.95203	-344.24182	744.96082	1337.28979	-274.03198	925.20929	1553.84045	-258.71011	935.62738	1405.66125	-456.32053	940.19379	1550.86133	-443.53558	942.11353	1300.39099	-344.36746	595.06921	1317.24207	-376.06754	461.84311	1317.69824	-455.67456	289.11752	1374.70642	-515.63068	80.02685	1429.18323	-563.04639	57.72120	1360.88013	-374.44107	31.44548	1625.35767	-222.87265	614.61255	1598.72644	-168.76845	466.78674	1605.78870	-194.43977	293.05481	1561.02295	-172.62523	84.69828	1506.28638	-207.06210	37.86406	1576.37769	-32.40733	69.95941	1486.79492	-290.38937	1710.83960	-3101.75513	1973.10059	1023.29285	-3140.59668	2012.56445	1022.18445			 
129	1.280	1396.80786	-282.73517	1671.76392	1508.21851	-258.56308	1680.84375	1416.56323	-382.94403	1598.79492	1534.82178	-359.85596	1606.74524	1447.90259	-390.56473	1428.15723	1453.53186	-429.68008	1136.14819	1446.25183	-247.83011	1358.49377	1436.94434	-208.14767	1201.64001	1519.56653	-447.07861	1232.96765	1287.65576	-307.26489	1392.76477	1196.23865	-307.34116	1211.92957	1187.19360	-283.71686	1060.60925	1170.55383	-198.99834	979.28729	1199.39258	-80.13433	912.94965	1172.28442	-123.38824	883.01996	1169.10938	-48.79180	843.66656	1598.53711	-310.76810	1384.69116	1690.13599	-388.10220	1187.83093	1688.67090	-399.37598	1064.19763	1717.81274	-387.60593	944.10468	1703.10071	-319.89902	819.83350	1737.78577	-367.15128	824.49377	1737.63538	-337.58685	744.13953	1337.29431	-265.25662	925.15662	1553.77832	-248.64235	934.96710	1406.89087	-447.09628	939.68610	1551.79565	-433.41370	941.30829	1300.31616	-338.32513	595.31354	1317.22876	-371.42416	462.25452	1317.80554	-453.02246	290.42932	1374.95007	-514.98804	81.85646	1429.38159	-562.46973	60.07077	1360.87817	-374.50552	31.50949	1626.12012	-217.98978	612.03613	1598.02869	-161.40581	465.48923	1606.45630	-179.11600	291.45590	1562.98840	-147.05991	83.82851	1508.68335	-179.40996	34.88534	1577.43152	-6.00812	75.51792	1488.02808	-281.67957	1710.15100	-3101.88867	1973.09509	1023.72150	-3140.56445	2012.52380	1021.94971			 
